<svg width="879" height="870" viewBox="0 0 879 870" fill="none" xmlns="http://www.w3.org/2000/svg">
<mask id="mask0_2893_273" style="mask-type:alpha" maskUnits="userSpaceOnUse" x="0" y="0" width="879" height="870">
<rect opacity="0.5" y="6.10352e-05" width="879" height="870" fill="#F8F4EF"/>
</mask>
<g mask="url(#mask0_2893_273)">
<path d="M739.318 -11.1302C599.866 -11.1302 486.818 193.923 486.818 446.87C486.818 699.816 599.866 904.87 739.318 904.87C878.77 904.87 991.818 699.816 991.818 446.87C991.818 193.923 878.77 -11.1302 739.318 -11.1302Z" stroke="url(#paint0_linear_2893_273)" stroke-miterlimit="10"/>
<path d="M631.318 -11.1303C551.513 -11.1304 486.818 193.923 486.818 446.87C486.818 699.816 551.513 904.87 631.318 904.87C711.123 904.87 775.818 699.816 775.818 446.87C775.818 193.923 711.124 -11.1303 631.318 -11.1303Z" stroke="#007981" stroke-miterlimit="10"/>
<path d="M289.818 -11.1302C181.018 -11.1302 92.8183 193.923 92.8183 446.87C92.8183 699.816 181.018 904.87 289.818 904.87C398.618 904.87 486.818 699.816 486.818 446.87C486.818 193.923 398.619 -11.1302 289.818 -11.1302Z" stroke="#C5B3FF" stroke-miterlimit="10"/>
<path d="M436.818 -11.1303C409.204 -11.1303 386.818 193.923 386.818 446.87C386.818 699.816 409.204 904.87 436.818 904.87C464.433 904.87 486.818 699.816 486.818 446.87C486.818 193.923 464.433 -11.1303 436.818 -11.1303Z" stroke="#293462" stroke-miterlimit="10"/>
<path d="M123.818 510.87C114.429 510.87 106.818 518.481 106.818 527.87C106.818 537.258 114.429 544.87 123.818 544.87C133.207 544.87 140.818 537.258 140.818 527.87C140.818 518.481 133.207 510.87 123.818 510.87Z" fill="#0F1122" stroke="#0F1122" stroke-miterlimit="10"/>
<path d="M387.318 418.87C378.206 418.87 370.818 426.257 370.818 435.37C370.818 444.482 378.206 451.87 387.318 451.87C396.431 451.87 403.818 444.482 403.818 435.37C403.818 426.257 396.431 418.87 387.318 418.87Z" fill="#0F1122" stroke="#0F1122" stroke-miterlimit="10"/>
<path d="M766.818 484.87C757.43 484.87 749.818 492.481 749.818 501.87C749.818 511.258 757.43 518.87 766.818 518.87C776.207 518.87 783.818 511.258 783.818 501.87C783.818 492.481 776.207 484.87 766.818 484.87Z" fill="white" stroke="#0F1122" stroke-miterlimit="10"/>
</g>
<defs>
<linearGradient id="paint0_linear_2893_273" x1="1014.99" y1="654.887" x2="466.488" y2="654.887" gradientUnits="userSpaceOnUse">
<stop stop-color="#2481D8"/>
<stop offset="0.475962" stop-color="#E79C6E"/>
<stop offset="1" stop-color="#00909A"/>
</linearGradient>
</defs>
</svg>
